<svg width="44" height="30" viewBox="0 0 44 30" fill="none" xmlns="http://www.w3.org/2000/svg">
<rect x="0.5" y="0.5" width="43" height="29" rx="3.5" fill="#FAFAFA"/>
<path fill-rule="evenodd" clip-rule="evenodd" d="M22 21.8343C20.4022 23.2053 18.3295 24.033 16.0647 24.033C11.0111 24.033 6.91431 19.9122 6.91431 14.829C6.91431 9.74576 11.0111 5.625 16.0647 5.625C18.3295 5.625 20.4022 6.45267 22 7.82371C23.5979 6.45267 25.6705 5.625 27.9354 5.625C32.989 5.625 37.0857 9.74576 37.0857 14.829C37.0857 19.9122 32.989 24.033 27.9354 24.033C25.6705 24.033 23.5979 23.2053 22 21.8343Z" fill="#ED0006"/>
<path fill-rule="evenodd" clip-rule="evenodd" d="M22 21.8343C23.9674 20.1461 25.215 17.6341 25.215 14.829C25.215 12.0239 23.9674 9.51189 22 7.82371C23.5978 6.45267 25.6705 5.625 27.9354 5.625C32.989 5.625 37.0857 9.74576 37.0857 14.829C37.0857 19.9122 32.989 24.033 27.9354 24.033C25.6705 24.033 23.5978 23.2053 22 21.8343Z" fill="#F9A000"/>
<path fill-rule="evenodd" clip-rule="evenodd" d="M22.0001 21.8343C23.9675 20.1462 25.2151 17.6342 25.2151 14.8291C25.2151 12.024 23.9675 9.51203 22.0001 7.82385C20.0327 9.51203 18.7852 12.024 18.7852 14.8291C18.7852 17.6342 20.0327 20.1462 22.0001 21.8343Z" fill="#FF5E00"/>
<rect x="0.5" y="0.5" width="43" height="29" rx="3.5" stroke="#FAFAFA"/>
</svg>
